<?xml version="1.0" encoding="UTF-8" standalone="no"?>
<!-- Created with Inkscape (http://www.inkscape.org/) -->
<svg
   xmlns:dc="http://purl.org/dc/elements/1.1/"
   xmlns:cc="http://web.resource.org/cc/"
   xmlns:rdf="http://www.w3.org/1999/02/22-rdf-syntax-ns#"
   xmlns:svg="http://www.w3.org/2000/svg"
   xmlns="http://www.w3.org/2000/svg"
   xmlns:xlink="http://www.w3.org/1999/xlink"
   xmlns:sodipodi="http://sodipodi.sourceforge.net/DTD/sodipodi-0.dtd"
   xmlns:inkscape="http://www.inkscape.org/namespaces/inkscape"
   width="744.09448819"
   height="1052.3622047"
   id="svg2"
   sodipodi:version="0.32"
   inkscape:version="0.45.1"
   sodipodi:docbase="/home/sergio/projects/vapour/doc/papers/SFSW2008/images"
   sodipodi:docname="arch.svg"
   inkscape:output_extension="org.inkscape.output.svg.inkscape"
   inkscape:export-filename="/home/sergio/projects/vapour/doc/papers/SFSW2008/images/arch.png"
   inkscape:export-xdpi="90"
   inkscape:export-ydpi="90">
  <defs
     id="defs4">
    <linearGradient
       id="linearGradient9263"
       inkscape:collect="always">
      <stop
         id="stop9265"
         offset="0"
         style="stop-color:#5a5a5a;stop-opacity:1;" />
      <stop
         id="stop9267"
         offset="1"
         style="stop-color:#5a5a5a;stop-opacity:0;" />
    </linearGradient>
    <linearGradient
       inkscape:collect="always"
       xlink:href="#linearGradient9263"
       id="linearGradient11747"
       gradientUnits="userSpaceOnUse"
       gradientTransform="translate(-31.314729,-41.416254)"
       x1="-631.69269"
       y1="742.38037"
       x2="441.36029"
       y2="116.08578" />
    <linearGradient
       id="linearGradient3134"
       inkscape:collect="always">
      <stop
         id="stop3136"
         offset="0"
         style="stop-color:#5a5a5a;stop-opacity:1;" />
      <stop
         id="stop3138"
         offset="1"
         style="stop-color:#5a5a5a;stop-opacity:0;" />
    </linearGradient>
    <linearGradient
       inkscape:collect="always"
       xlink:href="#linearGradient3134"
       id="linearGradient11745"
       gradientUnits="userSpaceOnUse"
       gradientTransform="matrix(1.4423076,0,0,-1.4423076,-60.903411,1069.451)"
       x1="138.3909"
       y1="133.12337"
       x2="95.964485"
       y2="106.85941" />
  </defs>
  <sodipodi:namedview
     id="base"
     pagecolor="#ffffff"
     bordercolor="#666666"
     borderopacity="1.0"
     gridtolerance="10000"
     guidetolerance="10"
     objecttolerance="10"
     inkscape:pageopacity="0.0"
     inkscape:pageshadow="2"
     inkscape:zoom="0.98994949"
     inkscape:cx="375"
     inkscape:cy="817.60788"
     inkscape:document-units="px"
     inkscape:current-layer="layer1"
     inkscape:window-width="1024"
     inkscape:window-height="698"
     inkscape:window-x="0"
     inkscape:window-y="25"
     showguides="true"
     inkscape:guide-bbox="true" />
  <metadata
     id="metadata7">
    <rdf:RDF>
      <cc:Work
         rdf:about="">
        <dc:format>image/svg+xml</dc:format>
        <dc:type
           rdf:resource="http://purl.org/dc/dcmitype/StillImage" />
      </cc:Work>
    </rdf:RDF>
  </metadata>
  <g
     inkscape:label="Layer 1"
     inkscape:groupmode="layer"
     id="layer1">
    <image
       y="117.95587"
       x="64.269073"
       id="image2236"
       height="59.309628"
       width="53.248714"
       sodipodi:absref="/home/sergio/projects/vapour/doc/papers/SFSW2008/images/user.png"
       xlink:href="user.png" />
    <rect
       style="fill:#ffffff;fill-opacity:1;fill-rule:evenodd;stroke:#5673bc;stroke-width:2.60650611;stroke-linecap:butt;stroke-linejoin:miter;stroke-miterlimit:4;stroke-dasharray:7.81951832, 2.60650611;stroke-dashoffset:0;stroke-opacity:1"
       id="rect2282"
       width="344.745"
       height="155.84645"
       x="202.39412"
       y="72.715363"
       ry="0" />
    <rect
       style="fill:#b1c7e1;fill-opacity:1;stroke:#ffffff;stroke-width:1.72617948;stroke-miterlimit:4;stroke-dasharray:none;stroke-dashoffset:0;stroke-opacity:1"
       id="rect12963"
       width="47.720524"
       height="137.62405"
       x="214.53574"
       y="81.846848" />
    <rect
       style="fill:#b1c7e1;fill-opacity:1;stroke:#ffffff;stroke-width:2.50555801;stroke-miterlimit:4;stroke-dasharray:none;stroke-dashoffset:0;stroke-opacity:1"
       id="rect13934"
       width="182.30161"
       height="58.052849"
       x="274.52441"
       y="82.236519" />
    <rect
       style="fill:#b1c7e1;fill-opacity:1;stroke:#ffffff;stroke-width:3.7587378;stroke-miterlimit:4;stroke-dasharray:none;stroke-dashoffset:0;stroke-opacity:1"
       id="rect13936"
       width="183.06848"
       height="75.992615"
       x="275.29312"
       y="143.49255" />
    <image
       y="2.3111649"
       x="152.23354"
       id="image16928"
       height="74.461914"
       width="46.177643"
       sodipodi:absref="/home/sergio/projects/vapour/doc/papers/SFSW2008/images/cup.png"
       xlink:href="cup.png" />
    <text
       xml:space="preserve"
       style="font-size:40px;font-style:normal;font-weight:normal;fill:#000000;fill-opacity:1;stroke:none;stroke-width:1px;stroke-linecap:butt;stroke-linejoin:miter;stroke-opacity:1;font-family:Bitstream Vera Sans"
       x="132.46791"
       y="64.658859"
       id="text11990"><tspan
         sodipodi:role="line"
         id="tspan11992"
         x="132.46791"
         y="64.658859"
         style="font-size:40px;font-weight:bold;fill:#5673bc;fill-opacity:1">vapour</tspan></text>
    <image
       y="121.4946"
       x="462.70557"
       id="image17059"
       height="75.472069"
       width="81.532982"
       sodipodi:absref="/home/sergio/projects/vapour/doc/papers/SFSW2008/images/database.png"
       xlink:href="database.png" />
    <g
       id="g17109"
       image-rendering="optimizeQuality"
       text-rendering="geometricPrecision"
       shape-rendering="geometricPrecision"
       transform="matrix(0.2182708,0,0,0.2464748,490.31695,126.60827)">
      <path
         id="path17111"
         d="M 84.45,66.836 C 83.814,66.499 83.166,66.212 82.514,65.957 L 82.98,65.919 C 82.98,65.919 78.829,64.081 78.466,50.739 C 78.107,37.395 82.423,35.119 82.423,35.119 L 81.803,35.146 C 85.064,33.473 87.869,30.83 89.72,27.342 C 94.543,18.27 91.092,7.001 82.018,2.177 C 72.94,-2.641 61.674,0.802 56.854,9.883 C 54.872,13.608 54.309,17.7 54.935,21.566 L 54.723,21.24 C 54.723,21.24 55.816,26.082 44.465,33.128 C 33.116,40.178 27.996,36.668 27.996,36.668 L 28.322,37.148 C 27.997,36.947 27.686,36.742 27.347,36.565 C 18.269,31.741 7,35.188 2.178,44.266 C -2.642,53.343 0.806,64.607 9.881,69.433 C 16.647,73.024 24.625,72.023 30.246,67.519 L 30.124,67.755 C 30.124,67.755 34.256,64.356 46.164,70.749 C 55.564,75.793 56.96,80.737 57.139,82.595 C 56.893,89.488 60.486,96.249 66.986,99.702 C 76.061,104.527 87.33,101.077 92.15,92.001 C 96.974,82.926 93.528,71.656 84.45,66.836 z M 63.466,69.282 C 61.962,69.814 57.665,70.403 48.619,65.552 C 38.822,60.292 37.368,55.898 37.155,54.579 C 37.294,52.979 37.205,51.382 36.932,49.824 L 36.992,49.914 C 36.992,49.914 36.194,45.64 47.404,38.679 C 57.437,32.451 61.998,33.69 62.847,34.015 C 63.393,34.386 63.959,34.732 64.553,35.048 C 65.682,35.648 66.846,36.118 68.025,36.466 C 69.405,37.78 71.945,41.511 72.209,51.32 C 72.479,61.203 69.575,65.014 67.992,66.362 C 66.362,67.1 64.836,68.085 63.466,69.282 z "
         style="fill:#0c479c" />
      <g
         id="g17113">
        <path
           id="path17115"
           d="M 62.239,8.1 C 56.824,14.023 56.71,22.736 61.927,27.666 C 59.348,25.183 59.404,20.015 62.01,15.069 C 62.345,14.626 63.316,13.579 64.735,14.055 C 64.878,14.104 64.972,14.117 65.027,14.108 C 65.348,14.177 65.677,14.218 66.017,14.203 C 68.172,14.105 69.839,12.282 69.742,10.126 C 69.698,9.159 69.297,8.303 68.677,7.646 C 73.679,4.369 79.419,3.994 81.771,6.142 L 81.861,6.148 C 76.488,1.242 67.705,2.119 62.239,8.1 z "
           style="fill:#ffffff" />
      </g>
      <g
         id="g17117">
        <path
           id="path17119"
           d="M 7.632,62.845 C 7.586,62.798 7.539,62.743 7.491,62.697 C 7.521,62.728 7.55,62.766 7.586,62.799 L 7.632,62.845 z "
           style="fill:#ffffff" />
        <path
           id="path17121"
           d="M 7.805,43.13 C 2.389,49.054 2.276,57.765 7.492,62.696 C 4.914,60.212 4.969,55.044 7.575,50.098 C 7.911,49.654 8.883,48.608 10.302,49.084 C 10.443,49.133 10.538,49.145 10.594,49.138 C 10.915,49.207 11.245,49.248 11.584,49.233 C 13.74,49.134 15.406,47.311 15.309,45.157 C 15.264,44.19 14.864,43.333 14.246,42.677 C 19.245,39.401 24.986,39.023 27.338,41.172 L 27.427,41.18 C 22.054,36.271 13.269,37.147 7.805,43.13 z "
           style="fill:#ffffff" />
      </g>
      <g
         id="g17123">
        <path
           id="path17125"
           d="M 65.256,92.504 C 65.209,92.456 65.162,92.402 65.115,92.356 C 65.144,92.387 65.174,92.425 65.209,92.457 L 65.256,92.504 z "
           style="fill:#ffffff" />
        <path
           id="path17127"
           d="M 65.428,72.786 C 60.012,78.712 59.899,87.425 65.115,92.355 C 62.535,89.872 62.592,84.702 65.197,79.758 C 65.533,79.313 66.504,78.268 67.924,78.744 C 68.067,78.791 68.159,78.805 68.216,78.797 C 68.536,78.866 68.867,78.907 69.206,78.893 C 71.36,78.793 73.026,76.969 72.929,74.813 C 72.885,73.847 72.484,72.991 71.866,72.334 C 76.866,69.059 82.605,68.682 84.959,70.83 L 85.047,70.837 C 79.677,65.93 70.891,66.807 65.428,72.786 z "
           style="fill:#ffffff" />
      </g>
    </g>
    <text
       xml:space="preserve"
       style="font-size:12px;font-style:normal;font-weight:normal;fill:#000000;fill-opacity:1;stroke:none;stroke-width:1px;stroke-linecap:butt;stroke-linejoin:miter;stroke-opacity:1;font-family:Bitstream Vera Sans"
       x="237.42645"
       y="114.79848"
       id="text17144"><tspan
         sodipodi:role="line"
         id="tspan17146"
         x="237.42645"
         y="114.79848"
         style="font-size:32px;font-weight:bold;text-align:center;text-anchor:middle;fill:#ffffff;fill-opacity:1">c</tspan><tspan
         sodipodi:role="line"
         x="237.42645"
         y="154.79848"
         id="tspan17148"
         style="font-size:32px;font-weight:bold;text-align:center;text-anchor:middle;fill:#ffffff;fill-opacity:1">u</tspan><tspan
         sodipodi:role="line"
         x="237.42645"
         y="194.79848"
         id="tspan17150"
         style="font-size:32px;font-weight:bold;text-align:center;text-anchor:middle;fill:#ffffff;fill-opacity:1">p</tspan></text>
    <text
       xml:space="preserve"
       style="font-size:12px;font-style:normal;font-weight:normal;fill:#000000;fill-opacity:1;stroke:none;stroke-width:1px;stroke-linecap:butt;stroke-linejoin:miter;stroke-opacity:1;font-family:Bitstream Vera Sans"
       x="374.67761"
       y="194.9453"
       id="text18121"><tspan
         sodipodi:role="line"
         x="374.67761"
         y="194.9453"
         id="tspan18127"
         style="font-size:32px;font-weight:bold;text-align:center;text-anchor:middle;fill:#ffffff;fill-opacity:1">teapot</tspan></text>
    <text
       xml:space="preserve"
       style="font-size:32px;font-style:normal;font-weight:normal;fill:#000000;fill-opacity:1;stroke:none;stroke-width:1px;stroke-linecap:butt;stroke-linejoin:miter;stroke-opacity:1;font-family:Bitstream Vera Sans"
       x="376.98215"
       y="123.48842"
       id="text18129"><tspan
         sodipodi:role="line"
         x="376.98215"
         y="123.48842"
         id="tspan18135"
         style="font-size:32px;font-weight:bold;text-align:center;text-anchor:middle;fill:#ffffff;fill-opacity:1">strainer</tspan></text>
    <path
       sodipodi:nodetypes="cccccccc"
       id="path11753"
       d="M 426.3808,221.41581 C 385.56568,223.39813 344.7506,224.49523 303.93557,221.41581 C 311.44468,234.49441 323.14278,247.41181 349.49659,259.7653 C 333.01781,260.84591 311.0165,258.73903 291.12155,257.84783 C 310.75136,264.63723 342.54704,269.89718 370.85327,275.10511 C 398.53395,270.9704 415.02336,267.34812 434.92345,260.861 C 419.00451,260.94458 405.79905,262.07229 386.51493,260.861 C 391.28083,247.71261 395.7076,234.56421 426.3808,221.41581 z "
       style="fill:#ebebe0;fill-opacity:1;fill-rule:evenodd;stroke:#000000;stroke-width:0.62450707px;stroke-linecap:butt;stroke-linejoin:miter;stroke-opacity:1" />
    <path
       sodipodi:nodetypes="cccccccc"
       id="path18492"
       d="M 120.99806,118.58763 C 123.69371,137.64874 125.18558,156.70986 120.99806,175.77092 C 138.7829,172.2641 156.34856,166.80095 173.14736,154.49345 C 174.6168,162.18922 171.75178,172.46408 170.53988,181.75526 C 179.77239,172.58789 186.92512,157.73896 194.00708,144.51963 C 188.38453,131.59243 183.45879,123.89167 174.63732,114.5981 C 174.751,122.03243 176.28449,128.19956 174.63732,137.20545 C 156.75756,134.97973 138.87782,132.91234 120.99806,118.58763 z "
       style="fill:#ebebe0;fill-opacity:1;fill-rule:evenodd;stroke:#000000;stroke-width:0.49767467px;stroke-linecap:butt;stroke-linejoin:miter;stroke-opacity:1" />
    <text
       xml:space="preserve"
       style="font-size:16px;font-style:normal;font-weight:normal;text-align:center;text-anchor:middle;fill:#000000;fill-opacity:1;stroke:none;stroke-width:1px;stroke-linecap:butt;stroke-linejoin:miter;stroke-opacity:1;font-family:Bitstream Vera Sans"
       x="361.47214"
       y="234.28076"
       id="text18494"><tspan
         sodipodi:role="line"
         id="tspan18496"
         x="361.47214"
         y="234.28076"
         style="font-size:12px">http</tspan><tspan
         sodipodi:role="line"
         x="361.47214"
         y="249.28076"
         id="tspan18533"
         style="font-size:12px">requests</tspan></text>
    <g
       transform="matrix(-0.3109899,0,0,-0.1555938,436.2103,319.00773)"
       id="g8835"
       inkscape:label="Layer 1">
      <path
         id="path2162"
         d="M 208.88616,1.4408886 C 196.42093,1.4408926 185.4224,7.9357206 178.85491,17.878389 C 177.50886,17.71307 176.14826,17.60543 174.76116,17.597139 L 174.54241,17.597139 C 162.41345,17.597143 151.66387,23.76099 145.04241,33.253389 C 142.56057,33.723044 140.10427,34.205773 137.66741,34.722139 C 132.04609,30.955821 125.34489,28.733789 118.16741,28.690889 L 117.97991,28.690889 C 110.73299,28.690891 103.9688,30.924343 98.292411,34.722139 C 94.704971,33.465378 90.845641,32.777241 86.854911,32.753389 L 86.667411,32.753389 C 70.401151,32.753394 56.58893,43.833456 51.917414,59.159636 C 36.165531,60.689986 23.323292,72.674976 19.854914,88.378386 C 9.0858901,94.907506 1.8379271,107.01877 1.7611641,120.90964 C 1.7163401,129.02099 4.1156311,136.56339 8.2611641,142.75339 C 7.3195781,146.08211 6.8125401,149.5802 6.7924141,153.22214 C 6.6878171,172.14991 19.985117,187.96782 37.417414,190.87839 C 37.218451,192.44555 37.113876,194.03791 37.104914,195.65964 C 36.989364,216.56945 53.218077,233.63322 73.323661,233.75339 C 82.918781,233.81074 91.656001,229.99701 98.198661,223.72214 C 100.80068,224.65193 103.45038,225.57141 106.13616,226.44089 C 112.6658,236.29523 123.5771,242.77319 135.94866,242.84714 C 142.56286,242.88667 148.77021,241.08691 154.13616,237.90964 C 154.83961,238.02408 155.55451,238.11145 156.26116,238.22214 C 162.76915,244.78475 171.61257,248.85122 181.38616,248.90964 C 188.91644,248.95465 195.92939,246.60765 201.76116,242.56589 C 203.73301,242.63918 205.71198,242.70856 207.69866,242.75339 C 214.33049,251.37433 224.51407,256.93505 235.94866,257.00339 C 248.80638,257.08024 260.12721,250.18731 266.66741,239.75339 C 271.36791,239.1602 276.00281,238.50793 280.57366,237.75339 C 285.32295,241.30963 290.92959,243.69841 297.01116,244.53464 C 303.53443,254.43602 314.44828,260.96048 326.85491,261.03464 C 343.28963,261.13287 357.27098,249.8812 361.88616,234.34714 C 363.6427,234.62909 365.43088,234.7737 367.26116,234.78464 C 367.88946,234.7884 368.51546,234.75118 369.13616,234.72214 C 369.75686,234.6931 370.36758,234.65818 370.97991,234.59714 C 383.34428,233.36457 393.94454,225.6807 399.57366,214.81589 C 401.86437,215.3007 404.24183,215.55139 406.66741,215.56589 C 426.773,215.68606 443.17687,198.81944 443.29241,177.90964 C 443.35799,166.04193 438.16354,155.40597 429.97991,148.40964 C 433.89034,142.41249 436.18689,135.19465 436.22991,127.40964 C 436.29379,115.84957 431.36163,105.46905 423.54241,98.472136 C 423.89733,96.386236 424.09281,94.255176 424.10491,92.065886 C 424.22046,71.156076 407.99174,54.061063 387.88616,53.940889 L 387.66741,53.940889 C 380.39581,53.940891 373.637,56.181759 367.94866,60.003386 C 367.07613,59.532756 366.21238,59.059586 365.32366,58.597136 C 360.23794,44.177207 346.95318,33.846808 331.32366,33.753389 L 331.10491,33.753389 C 324.60343,33.753391 318.51596,35.521442 313.22991,38.628389 C 309.80028,21.522127 295.26815,8.6078426 277.79241,8.5033886 L 277.57366,8.5033886 C 266.30546,8.5033916 256.22571,13.823613 249.54241,22.190889 C 246.35541,20.381305 242.87366,19.069811 239.19866,18.315889 C 232.70671,8.2000566 221.6709,1.5159966 209.10491,1.4408886 L 208.88616,1.4408886 z "
         style="opacity:1;fill:url(#linearGradient11745);fill-opacity:1;stroke:none;stroke-width:3;stroke-linecap:butt;stroke-linejoin:miter;stroke-miterlimit:0;stroke-dasharray:72, 72;stroke-dashoffset:0;stroke-opacity:1" />
      <path
         style="opacity:1;fill:#ffffff;fill-opacity:1;stroke:none;stroke-width:3;stroke-linecap:butt;stroke-linejoin:miter;stroke-miterlimit:0;stroke-dasharray:72, 72;stroke-dashoffset:0;stroke-opacity:1"
         d="M 209.50491,12.32849 C 197.6051,12.328494 187.10546,18.278524 180.83587,27.387186 C 179.55087,27.235734 178.25199,27.137122 176.92781,27.129528 L 176.71898,27.129528 C 165.14019,27.129532 154.87821,32.776344 148.55711,41.472506 C 146.18784,41.902766 143.84296,42.345002 141.51664,42.818054 C 136.1503,39.367662 129.75307,37.332017 122.90115,37.292715 L 122.72216,37.292715 C 115.80396,37.292717 109.34659,39.338824 103.92769,42.818054 C 100.50297,41.666712 96.818701,41.036298 93.008991,41.014446 L 92.830001,41.014446 C 77.301571,41.014451 64.115874,51.165099 59.656258,65.205686 C 44.61888,66.607676 32.359165,77.587346 29.048112,91.973526 C 18.767572,97.954976 11.848376,109.05033 11.775095,121.77601 C 11.732304,129.20697 14.022763,136.11669 17.980255,141.78747 C 17.08138,144.83697 16.597341,148.04163 16.578128,151.37809 C 16.478275,168.71816 29.172409,183.20924 45.813977,185.87566 C 45.62404,187.31137 45.524208,188.77015 45.515653,190.25586 C 45.405344,209.41172 60.897922,225.04415 80.091521,225.15423 C 89.251411,225.20677 97.592301,221.71295 103.83819,215.96442 C 106.32218,216.81623 108.85169,217.65858 111.41565,218.45512 C 117.64909,227.48287 128.06546,233.41745 139.87584,233.48519 C 146.19003,233.5214 152.11581,231.87261 157.23836,228.96185 C 157.90991,229.0667 158.59237,229.14673 159.26698,229.24815 C 165.47976,235.26028 173.92205,238.98563 183.25231,239.03916 C 190.44101,239.0804 197.13586,236.93027 202.70309,233.22753 C 204.5855,233.29468 206.47471,233.35824 208.37127,233.3993 C 214.70227,241.29711 224.42393,246.39139 235.33985,246.45399 C 247.61434,246.52439 258.42166,240.20965 264.66519,230.65095 C 269.15248,230.10752 273.57714,229.50996 277.94065,228.81871 C 282.47452,232.07664 287.82685,234.26505 293.63256,235.03114 C 299.85992,244.10197 310.27872,250.07915 322.1226,250.14709 C 337.81183,250.23709 351.15899,239.92922 355.56482,225.69818 C 357.24169,225.95649 358.94876,226.08896 360.69601,226.09899 C 361.29582,226.10243 361.89342,226.06834 362.48596,226.04173 C 363.07851,226.01512 363.66153,225.98314 364.24608,225.92721 C 376.0496,224.79803 386.16903,217.7587 391.54281,207.80525 C 393.72962,208.24939 395.99924,208.47905 398.31479,208.49234 C 417.50839,208.60243 433.16818,193.15061 433.27848,173.99476 C 433.34109,163.12252 428.38226,153.37872 420.56984,146.96926 C 424.30289,141.47516 426.49527,134.86277 426.53634,127.73078 C 426.59733,117.14038 421.88889,107.6306 414.42434,101.2206 C 414.76316,99.309666 414.94978,97.357366 414.96133,95.351716 C 415.07164,76.195856 399.57905,60.534796 380.38546,60.424706 L 380.17664,60.424706 C 373.23487,60.424706 366.78264,62.477596 361.35232,65.978666 C 360.51937,65.547516 359.6948,65.114036 358.8464,64.690376 C 353.99137,51.480016 341.3092,42.016147 326.38864,41.930566 L 326.17981,41.930566 C 319.97324,41.930567 314.1619,43.550311 309.11562,46.396642 C 305.84156,30.725282 291.9686,18.894268 275.28557,18.798576 L 275.07674,18.798576 C 264.31966,18.798579 254.69713,23.672531 248.31699,31.337946 C 245.27455,29.680153 241.95073,28.478669 238.44243,27.787987 C 232.24495,18.520688 221.70972,12.397298 209.71373,12.32849 L 209.50491,12.32849 z "
         id="path6344" />
      <path
         id="path8292"
         d="M 209.50491,12.32849 C 197.6051,12.328494 187.10546,18.278524 180.83587,27.387186 C 179.55087,27.235734 178.25199,27.137122 176.92781,27.129528 L 176.71898,27.129528 C 165.14019,27.129532 154.87821,32.776344 148.55711,41.472506 C 146.18784,41.902766 143.84296,42.345002 141.51664,42.818054 C 136.1503,39.367662 129.75307,37.332017 122.90115,37.292715 L 122.72216,37.292715 C 115.80396,37.292717 109.34659,39.338824 103.92769,42.818054 C 100.50297,41.666712 96.818701,41.036298 93.008991,41.014446 L 92.830001,41.014446 C 77.301571,41.014451 64.115874,51.165099 59.656258,65.205686 C 44.61888,66.607676 32.359165,77.587346 29.048112,91.973526 C 18.767572,97.954976 11.848376,109.05033 11.775095,121.77601 C 11.732304,129.20697 14.022763,136.11669 17.980255,141.78747 C 17.08138,144.83697 16.597341,148.04163 16.578128,151.37809 C 16.478275,168.71816 29.172409,183.20924 45.813977,185.87566 C 45.62404,187.31137 45.524208,188.77015 45.515653,190.25586 C 45.405344,209.41172 60.897922,225.04415 80.091521,225.15423 C 89.251411,225.20677 97.592301,221.71295 103.83819,215.96442 C 106.32218,216.81623 108.85169,217.65858 111.41565,218.45512 C 117.64909,227.48287 128.06546,233.41745 139.87584,233.48519 C 146.19003,233.5214 152.11581,231.87261 157.23836,228.96185 C 157.90991,229.0667 158.59237,229.14673 159.26698,229.24815 C 165.47976,235.26028 173.92205,238.98563 183.25231,239.03916 C 190.44101,239.0804 197.13586,236.93027 202.70309,233.22753 C 204.5855,233.29468 206.47471,233.35824 208.37127,233.3993 C 214.70227,241.29711 224.42393,246.39139 235.33985,246.45399 C 247.61434,246.52439 258.42166,240.20965 264.66519,230.65095 C 269.15248,230.10752 273.57714,229.50996 277.94065,228.81871 C 282.47452,232.07664 287.82685,234.26505 293.63256,235.03114 C 299.85992,244.10197 310.27872,250.07915 322.1226,250.14709 C 337.81183,250.23709 351.15899,239.92922 355.56482,225.69818 C 357.24169,225.95649 358.94876,226.08896 360.69601,226.09899 C 361.29582,226.10243 361.89342,226.06834 362.48596,226.04173 C 363.07851,226.01512 363.66153,225.98314 364.24608,225.92721 C 376.0496,224.79803 386.16903,217.7587 391.54281,207.80525 C 393.72962,208.24939 395.99924,208.47905 398.31479,208.49234 C 417.50839,208.60243 433.16818,193.15061 433.27848,173.99476 C 433.34109,163.12252 428.38226,153.37872 420.56984,146.96926 C 424.30289,141.47516 426.49527,134.86277 426.53634,127.73078 C 426.59733,117.14038 421.88889,107.6306 414.42434,101.2206 C 414.76316,99.309666 414.94978,97.357366 414.96133,95.351716 C 415.07164,76.195856 399.57905,60.534796 380.38546,60.424706 L 380.17664,60.424706 C 373.23487,60.424706 366.78264,62.477596 361.35232,65.978666 C 360.51937,65.547516 359.6948,65.114036 358.8464,64.690376 C 353.99137,51.480016 341.3092,42.016147 326.38864,41.930566 L 326.17981,41.930566 C 319.97324,41.930567 314.1619,43.550311 309.11562,46.396642 C 305.84156,30.725282 291.9686,18.894268 275.28557,18.798576 L 275.07674,18.798576 C 264.31966,18.798579 254.69713,23.672531 248.31699,31.337946 C 245.27455,29.680153 241.95073,28.478669 238.44243,27.787987 C 232.24495,18.520688 221.70972,12.397298 209.71373,12.32849 L 209.50491,12.32849 z "
         style="opacity:1;fill:url(#linearGradient11747);fill-opacity:1;stroke:none;stroke-width:3;stroke-linecap:butt;stroke-linejoin:miter;stroke-miterlimit:0;stroke-dasharray:72, 72;stroke-dashoffset:0;stroke-opacity:1" />
    </g>
    <text
       xml:space="preserve"
       style="font-size:24px;font-style:normal;font-weight:normal;fill:#000000;fill-opacity:1;stroke:none;stroke-width:1px;stroke-linecap:butt;stroke-linejoin:miter;stroke-opacity:1;font-family:Bitstream Vera Sans"
       x="317.14728"
       y="302.22495"
       id="text18525"><tspan
         sodipodi:role="line"
         id="tspan18527"
         x="317.14728"
         y="302.22495"
         style="font-size:18px;fill:#000000;fill-opacity:1">vocabulary</tspan></text>
    <text
       xml:space="preserve"
       style="font-size:20px;font-style:normal;font-weight:normal;fill:#000000;fill-opacity:1;stroke:none;stroke-width:1px;stroke-linecap:butt;stroke-linejoin:miter;stroke-opacity:1;font-family:Bitstream Vera Sans"
       x="129.21829"
       y="155.69191"
       id="text18529"><tspan
         sodipodi:role="line"
         id="tspan18531"
         x="129.21829"
         y="155.69191"
         style="font-size:20px">URI</tspan></text>
    <image
       y="-516.93414"
       x="-213.6107"
       id="image18575"
       height="46.827408"
       width="40.766491"
       sodipodi:absref="/home/sergio/projects/vapour/doc/papers/SFSW2008/images/arrow.png"
       xlink:href="arrow.png"
       transform="matrix(0,-1,-1,0,0,0)" />
    <image
       y="81.930466"
       x="-510.81229"
       id="image18578"
       height="42.786797"
       width="45.817253"
       sodipodi:absref="/home/sergio/projects/vapour/doc/papers/SFSW2008/images/arrow.png"
       xlink:href="arrow.png"
       transform="scale(-1,1)" />
    <path
       sodipodi:nodetypes="cccccccc"
       id="path18619"
       d="M 266.41034,180.48621 L 293.50709,180.37157 C 293.50709,180.37157 293.58814,176.87568 293.50709,176.87568 C 293.42593,176.87568 301.21417,184.61247 301.21417,184.61247 L 294.39948,192.40663 C 294.39948,192.40663 294.15612,188.96802 294.15612,189.02532 C 294.15612,189.08264 266.41033,189.31187 266.49148,189.25455 L 266.41034,180.48621 z "
       style="fill:#ffffff;fill-opacity:1;fill-rule:evenodd;stroke:#000000;stroke-width:0.60943949;stroke-linecap:butt;stroke-linejoin:round;stroke-dasharray:none;stroke-opacity:1" />
    <path
       sodipodi:nodetypes="cccccccc"
       id="path18621"
       d="M 296.22431,108.76537 L 269.12756,108.65073 C 269.12756,108.65073 269.04651,105.15484 269.12756,105.15484 C 269.20872,105.15484 261.42048,112.89163 261.42048,112.89163 L 268.23517,120.68579 C 268.23517,120.68579 268.47853,117.24718 268.47853,117.30448 C 268.47853,117.3618 296.22432,117.59103 296.14317,117.53371 L 296.22431,108.76537 z "
       style="fill:#ffffff;fill-opacity:1;fill-rule:evenodd;stroke:#000000;stroke-width:0.60943949;stroke-linecap:butt;stroke-linejoin:round;stroke-dasharray:none;stroke-opacity:1" />
  </g>
</svg>
